<svg xmlns="http://www.w3.org/2000/svg" viewBox="0 0 100 85" width="100" height="85">
  <style>
    .st0{fill:#F2F2F2;stroke:#C7C7C7;stroke-width:0.5;stroke-miterlimit:10;} /* Cuerpo principal (Blanco grisáceo) */
    .st1{fill:#0055CC;} /* Detalles Azules (Marca, Controles) */
    .st2{fill:#003366;} /* Pantalla (Azul Marino) */
    .st3{fill:#B3D9FF;} /* Ventana (Azul Claro) */
    .st4{fill:#E6E6E6;} /* Estante y Teclado (Gris Claro) */
    .st5{fill:#FF3333;} /* Botón de Emergencia (Rojo) */
    .st6{fill:#33FF33;} /* Luz de Estado (Verde) */
  </style>
  
  <g id="ISM_UltraFlex3600_Icon">
    <rect x="5" y="5" class="st0" width="85" height="75" rx="2" ry="2"/>
    
    <line x1="42" y1="5" x2="42" y2="80" style="stroke:#C7C7C7;stroke-width:0.25;"/>

    <rect x="8" y="7" class="st6" width="6" height="3" rx="0.5" ry="0.5"/>

    <rect x="10" y="32" class="st0" width="20" height="20" rx="1" ry="1"/>
    <rect x="12" y="34" class="st3" width="16" height="16"/>
    <path class="st1" d="M18,31h4l-2,4.5v1.5h-1v-1.5L20,31H18V31z"/>
    
    <rect x="10" y="54" class="st4" width="20" height="6" rx="1" ry="1"/>
    <rect x="13" y="56" class="st1" width="14" height="2" rx="0.5" ry="0.5"/>

    <rect x="32" y="32" class="st1" width="5" height="28" rx="0.5" ry="0.5"/>
    <circle class="st0" cx="34.5" cy="35" r="1"/> <circle class="st0" cx="34.5" cy="38" r="1"/> <circle class="st5" cx="34.5" cy="51" r="1.5"/> <circle class="st0" cx="34.5" cy="56" r="1"/> <rect x="48" y="25" class="st0" width="22" height="12" rx="1" ry="1"/>
    <rect x="49" y="26" class="st2" width="20" height="10"/>
    
    <rect x="52" y="39" class="st1" width="14" height="1.5"/>
    <rect x="52" y="41" class="st1" width="10" height="0.8"/>
    
    <rect x="45" y="52" class="st4" width="40" height="2" rx="0.5" ry="0.5"/>
    <rect x="53" y="51" class="st2" width="16" height="1"/>
    <circle class="st2" cx="72" cy="51" r="0.6"/>

    <path class="st1" d="M88,5v75h2c1.1,0,2-0.9,2-2V7C92,5.9,91.1,5,89,5H88z"/>
    <circle style="fill:#FFFFFF;" cx="90" cy="30" r="1"/>
    <circle style="fill:#FFFFFF;" cx="90" cy="27" r="1"/>
  </g>
</svg>
